<?xml version="1.0" encoding="UTF-8"?><svg id="Camada_1" xmlns="http://www.w3.org/2000/svg" viewBox="0 0 700 625.6762"><defs><style>.cls-1{fill:#006a38;}</style></defs><path class="cls-1" d="M0,63.7798C3.3902,41.6175,22.637,17.3497,42.5697,7.661c7.5963-3.6923,15.7323-4.0526,22.1881-7.661l570.4841.0002c6.3777,3.4704,14.7123,3.7846,22.1886,7.6604,16.852,8.7363,42.5694,36.432,42.5694,56.1191v84.3443h-63.6885c-1.4797,0-12.9526,10.7071-12.0998,14.2937l.361,302.691c1.7436,4.8745,7.3053,12.3596,12.8863,12.3596h62.541v84.3443c0,2.6497-6.6107,20.5938-8.3329,23.7982-9.4803,17.6389-31.0194,34.35-50.8897,38.6185-191.3547,2.946-383.2251.4594-574.7721,1.2502-8.2831-1.9772-18.6773-4.3198-26.1415-8.2847-15.6759-8.327-39.8638-36.7041-39.8638-55.3821v-84.3443h62.541c7.0406,0,12.8057-10.148,13.2778-16.5583l-.0271-296.2006c.4427-4.294-8.8615-16.5854-12.1032-16.5854H0V63.7798ZM125.082,48.288h-52.7869v52.7869h52.7869v-52.7869ZM251.3115,48.288h-53.9344v52.7869h53.9344v-52.7869ZM376.3934,48.288h-52.7869v52.7869h52.7869v-52.7869ZM502.623,48.288h-53.9344v52.7869h53.9344v-52.7869ZM627.7049,48.288h-52.7869v52.7869h52.7869v-52.7869ZM160.3924,148.4345c-6.5775,2.7731-12.547,7.1915-12.4037,15.1373l-.0102,299.6065c.1905,7.3197,8.1523,14.4518,15.502,14.334h373.0389c8.0329.0151,15.4981-7.4106,15.4918-15.4918V163.5718c.1513-7.9063-5.7914-12.3546-12.4037-15.1373H160.3924ZM126.2295,524.5175h-53.9344v53.9344h53.9344v-53.9344ZM251.3115,524.5175h-53.9344v53.9344h53.9344v-53.9344ZM376.3934,524.5175h-52.7869v53.9344h52.7869v-53.9344ZM502.623,524.5175h-53.9344v53.9344h53.9344v-53.9344ZM627.7049,524.5175h-53.9344v53.9344h53.9344v-53.9344Z"/><path class="cls-1" d="M439.9584,336.7967c-31.0774,15.9496-63.5385,31.5281-94.2644,48.5784-25.4631,9.8926-51.3847,28.7297-76.3333,38.413-8.3066,3.224-15.5334-2.4746-18.1092-9.9483l.6545-203.7277c7.2614-8.4726,10.1428-9.8666,20.6463-5.7708,25.0795,9.7796,52.8739,27.5881,77.1749,39.8752,38.7486,19.5921,78.3015,38.6852,117.2734,58.3004,21.7333,17.8012-14.4113,27.7974-27.0422,34.2799Z"/></svg>